<?xml version="1.0" encoding="UTF-8"?>
<svg id="Layer_2" data-name="Layer 2" xmlns="http://www.w3.org/2000/svg" viewBox="0 0 387.63 99.8">
  <defs>
    <style>
      .cls-1 {
        stroke: #feda00;
      }

      .cls-1, .cls-2, .cls-3 {
        fill: none;
        stroke-miterlimit: 10;
        stroke-width: 9px;
      }

      .cls-2 {
        stroke: #f89521;
      }

      .cls-3 {
        stroke: #23bdc0;
      }

      .cls-4 {
        fill: #191736;
        stroke-width: 0px;
      }
    </style>
  </defs>
  <g id="Layer_1-2" data-name="Layer 1">
    <g>
      <rect class="cls-1" x="65.07" y="21.54" width="60.57" height="55.12" rx="27.56" ry="27.56"/>
      <rect class="cls-2" x="33.58" y="21.54" width="60.57" height="55.12" rx="27.56" ry="27.56"/>
      <rect class="cls-3" x="4.5" y="21.54" width="60.57" height="55.12" rx="27.56" ry="27.56"/>
    </g>
    <g>
      <path class="cls-4" d="M144.16,50.14c0-17.47,11.61-29.56,27.64-29.56s26.56,11.13,26.56,28.96v4.31h-42.48c.72,9.69,6.82,15.56,16.39,15.56s13.76-4.67,15.92-10.17l10.41,4.07c-3.83,8.73-11.85,15.67-26.33,15.67-17.35,0-28.12-11.49-28.12-28.84ZM186.28,44.99c-.48-9.69-5.86-14.84-14.72-14.84s-14.72,5.62-15.92,14.84h30.63Z"/>
      <path class="cls-4" d="M246.08,69.76c-3.95,5.98-10.41,9.45-18.31,9.45-14.36,0-25.25-10.89-25.37-28.96v-.24c0-18.19,10.77-29.68,25.49-29.68,7.78,0,14.12,3.71,18.19,9.69v-8.5h11.61v78.26h-11.61v-30.04ZM246.68,50.02v-.96c0-11.13-5.98-18.43-15.92-18.43s-16.03,6.82-16.03,19.03v.84c0,12.08,6.34,18.67,16.03,18.67s15.92-7.9,15.92-19.15Z"/>
      <path class="cls-4" d="M264.98,55.88V21.54h11.85v33.74c0,8.74,3.83,13.52,11.49,13.52,9.33,0,13.64-8.02,13.64-20.22v-27.04h11.73v56.48h-11.73v-9.69c-3.11,6.94-8.62,10.65-16.75,10.65-12.68,0-20.22-8.74-20.22-23.09Z"/>
      <rect class="cls-4" x="321.58" y="0" width="12.68" height="12.44" rx="6.22" ry="6.22"/>
      <rect class="cls-4" x="321.94" y="21.54" width="11.85" height="56.48"/>
      <path class="cls-4" d="M346.59,63.9V31.59h-8.97v-10.05h8.97v-11.01l11.37-7.06v18.07h12.21v10.05h-12.21v30.87c0,3.59,1.44,5.26,5.03,5.26h6.7v10.29h-10.05c-10.29-.48-12.92-5.15-13.04-14.12Z"/>
      <rect class="cls-4" x="374.95" y="0" width="12.68" height="12.44" rx="6.22" ry="6.22"/>
      <rect class="cls-4" x="375.31" y="21.54" width="11.85" height="56.48"/>
    </g>
  </g>
</svg>